<svg height="512" viewBox="0 0 512 512" width="512" xmlns="http://www.w3.org/2000/svg">
  <g data-name="filled outline">
    <path d="M472 488l-432 .92v-336L256 24l216 128z" fill="#0292c9"/>
    <path d="M400 489l5.766-20.219a306.312 306.312 0 0010.82-123.8A306.31 306.31 0 00367.24 210.86a228.588 228.588 0 00-57.333-59.212A125.419 125.419 0 00261.6 130.72a52.241 52.241 0 00-26.76 1.666l-19 6.334a36 36 0 00-22.04 20.78L184 184l-47.789 23.894a16 16 0 00-6.157 23.187L152 264l47.247-4.3v229.22z" fill="#fbb540"/>
    <path d="M344 212.22a32 32 0 01-64 0V195.5a70.437 70.437 0 00-10.03-36.22l-8.15-13.58a91.893 91.893 0 00-12.13-15.96c.56-.02 1.11-.03 1.67-.03a52.054 52.054 0 0110.24 1.01 125.371 125.371 0 0148.31 20.93q5.07 3.63 9.94 7.52A70.317 70.317 0 01344 212.22z" fill="#fbb540"/>
    <path d="M143.7 234.86L136 240l-5.95-8.92a16.01 16.01 0 016.16-23.19l15.74-7.87.05-.02 1.81 5.42a25.649 25.649 0 01-10.11 29.44z" fill="#fbb540"/>
    <path d="M369.041 317.359L320 366.4l-49.041-49.041a23.758 23.758 0 01-6.959-16.8 23.759 23.759 0 0123.759-23.759 23.758 23.758 0 0116.8 6.959L320 299.2l15.441-15.441a23.758 23.758 0 0116.8-6.959A23.759 23.759 0 01376 300.559a23.758 23.758 0 01-6.959 16.8z" fill="#e82f3e"/>
    <g fill="#d18d28">
      <circle cx="221" cy="189" r="11"/>
      <path d="M199.247 259.705l35.584-3.235a9.316 9.316 0 007.49-5.113 7.515 7.515 0 0112.9-.913 7.514 7.514 0 01.235 8.186 22.68 22.68 0 01-16.776 10.725L200 273.8z"/>
      <path d="M344 212.22a32 32 0 01-64 0V195.5a70.437 70.437 0 00-10.03-36.22l-8.15-13.58a91.893 91.893 0 00-12.13-15.96c.56-.02 1.11-.03 1.67-.03a52.054 52.054 0 0110.24 1.01 125.371 125.371 0 0148.31 20.93l4.61 3.3q2.775 1.98 5.33 4.22A70.317 70.317 0 01344 212.22z"/>
      <path d="M143.7 234.86L136 240l-5.95-8.92a16.01 16.01 0 016.16-23.19l15.74-7.87.05-.02 1.81 5.42a25.649 25.649 0 01-10.11 29.44z"/>
    </g>
    <path d="M272 416l2.155.616A74.241 74.241 0 01328 488v1H128l-4.839-16.726a200 200 0 0122.424-166.193L152 296l1.851-3.7a51.192 51.192 0 0145.786-28.3H200v32l27.877 13.939a46 46 0 0124.535 32.122L256 360l.811.811a24 24 0 011.77 31.963L256 396z" fill="#fbfdff"/>
    <path d="M218.516 424a52.355 52.355 0 01-37.266-15.436l-2.907-2.907a8 8 0 0111.314-11.314l2.907 2.907a36.7 36.7 0 0054.61-3.024l2.579-3.226a8 8 0 1112.494 10l-2.58 3.224A52.44 52.44 0 01218.516 424z" fill="#cbcbcb"/>
    <circle cx="216" cy="352" fill="#cbcbcb" r="11"/>
    <path d="M352.241 268.8a31.548 31.548 0 00-22.456 9.3L320 287.887l-9.784-9.784a31.759 31.759 0 10-44.916 44.913l49.041 49.042a8 8 0 0011.314 0l49.045-49.042a31.759 31.759 0 00-22.459-54.216zm11.144 42.9L320 355.087 276.615 311.7a15.759 15.759 0 0122.285-22.284l15.441 15.441a8 8 0 0011.314 0l15.445-15.442a15.759 15.759 0 0122.285 22.285z"/>
    <path d="M476.079 145.117l-216-128a8 8 0 00-8.179.014l-216 128.921a8 8 0 00-3.9 6.869v336a8 8 0 008 8h.017l432-.921a8 8 0 007.983-8V152a8.005 8.005 0 00-3.921-6.883zM192 272.668V296a8 8 0 004.422 7.155l27.878 13.939a37.752 37.752 0 0120.268 26.536l3.588 17.939a8 8 0 002.188 4.088l.811.811a15.982 15.982 0 011.18 21.308L249.756 391l-2.579 3.224a36.7 36.7 0 01-54.61 3.024l-2.907-2.907a8 8 0 00-11.314 11.314l2.907 2.907a52.7 52.7 0 0074.546-.014L265.753 421a8 8 0 004.051 2.695l2.153.616A66.568 66.568 0 01319.51 480h-185.6l-3.1-10.079a191.719 191.719 0 0121.526-159.545l6.416-10.081a8.042 8.042 0 00.406-.717l1.851-3.7A42.919 42.919 0 01192 272.668zm84.652 136.342l-10.459-13.074a31.963 31.963 0 00-2.814-39.833l-3.122-15.612a53.654 53.654 0 00-28.8-37.708L208 291.056v-24.114l32.724-2.975a8 8 0 006.431-4.389l8-16a8 8 0 00-14.31-7.156l-6.008 12.015-78.821 7.163-8.922-13.384 1.047-.7a33.72 33.72 0 0013.619-37.457l25.818-12.909a8 8 0 003.85-4.184l9.8-24.5a27.946 27.946 0 0117.142-16.165l19-6.334a44.19 44.19 0 018.995-1.969 84.075 84.075 0 018.594 11.81l8.148 13.581A62.4 62.4 0 01272 195.5v16.727a40 40 0 1080 0 77.971 77.971 0 00-.61-9.7q4.806 6.207 9.194 12.775a299.689 299.689 0 0148.056 130.61 296.584 296.584 0 01-10.54 120.57l-4.1 13.684-58.378.125a82.636 82.636 0 00-58.97-71.281zM136.71 226.643a8 8 0 013.079-11.593l7.2-3.6a17.681 17.681 0 01-7.719 16.756l-1.046.7zm178.218-61.155A62.526 62.526 0 01336 212.223a23.868 23.868 0 01-13.266 21.466 24.119 24.119 0 01-21.467 0A23.867 23.867 0 01288 212.223V195.5a78.407 78.407 0 00-11.171-40.33l-8.148-13.581c-.232-.386-.486-.759-.723-1.142a116.571 116.571 0 0137.3 17.714q4.95 3.533 9.67 7.327zM464 480.017l-53.287.113 2.715-9.05a312.5 312.5 0 0011.1-127.037 315.762 315.762 0 00-50.628-137.62 235.614 235.614 0 00-48.66-53.177 78.433 78.433 0 00-6.062-4.809 8.058 8.058 0 00-.761-.479 239.456 239.456 0 00-3.856-2.82 132.55 132.55 0 00-51.387-22.262 60.306 60.306 0 00-30.858 1.921l-19 6.333a43.918 43.918 0 00-26.939 25.4l-8.677 21.675-45.069 22.534a24 24 0 00-9.236 34.779l5.945 8.916 16 24a8 8 0 007.38 3.529l7.123-.648a59.447 59.447 0 00-13.151 17.4l-1.667 3.334-6.194 9.732a207.691 207.691 0 00-23.32 172.84l1.886 6.13L48 480.9V157.463L256.015 33.308 464 156.559z"/>
    <circle cx="216" cy="352" r="11"/>
    <circle cx="221" cy="189" r="11"/>
  </g>
</svg>
