<svg version="1.0" xmlns="http://www.w3.org/2000/svg" width="933.333" height="933.333" viewBox="0 0 700 700">
  <path d="M310 43.8c-74.9 44.8-219.2 131-239.5 143-11.5 6.8-22.2 13.7-23.8 15.3L44 205v233.1c0 169.7.3 233.6 1.1 235.2.6 1.2 2.1 3 3.3 3.9 2 1.6 11.8 1.8 158.7 1.8 86.1 0 220.9-.3 299.5-.7l142.9-.6 3.3-3.3 3.2-3.2V203.8l-3.2-3.2c-1.8-1.7-69.9-42.6-151.4-90.9C382.5 39.3 352.7 22 349.9 22c-2.6 0-11.5 4.8-39.9 21.8zM340.9 194c2.2 2.8 7.7 11.1 12.1 18.5 16.3 27.1 17.9 32.5 19 66 .6 20.8 1 24.8 2.9 30 7.7 21.3 29.4 36.5 51.9 36.5 17.3-.1 34.7-9.3 44.5-23.6 6.9-10.2 8.9-16.6 9.6-30.9l.6-12 6.1 8.5c36.4 50.8 61.5 115.9 70.5 182.4 2.6 19.4 3.7 63.3 2 82.6-2.6 30.5-7.4 55.9-16.2 86.3l-5.2 17.7h-79.5l-.7-4.3c-4.6-29.9-20.9-57.1-45-75-8.4-6.2-21.6-13.3-30.1-16.1-4.5-1.5-6-2.8-12.2-10.4l-7-8.6 2.9-5.7c4.1-8.3 5.6-17.4 4.1-26-1.2-7-4.6-14.8-8.7-20.4-1.6-2.1-3.2-7.5-5.4-18-2.4-12-3.9-16.8-7.5-24-9-18.1-18.3-26.2-45.6-40l-19-9.6v-16.4c0-15 .2-16.5 1.8-16.5.9 0 11.3-.9 23.1-2 14.7-1.4 22.2-2.5 24-3.6 3.1-1.8 16.1-26.8 16.1-30.8 0-4.2-1.8-7.5-5.2-9.6-7.6-4.6-12.8-1.6-19.3 11.2l-4.8 9.4-47.6 4.2c-26.2 2.4-50.3 4.6-53.6 4.9l-6 .5-5.8-8.6c-3.1-4.7-5.7-8.9-5.7-9.3 0-.5 2.1-2.3 4.5-4.2 5.8-4.3 12-13.6 14.5-21.8 2.1-7 2.6-17.6 1-23.1l-.9-3.4 18.4-8.9c10.5-5.1 19.3-10.1 20.4-11.5 1-1.3 5.2-10.6 9.2-20.6 4-10.1 8.2-19.9 9.4-21.8 2.6-4.2 10.2-11.3 14.1-13.3 2.8-1.4 34.8-12.1 38.9-13 4.5-1 5.6-.5 9.4 4.3zm36.8 2.1c17 6 36.2 17 50.5 28.9 19.4 16.2 30.1 38.3 30.2 62.5.1 9.2-.2 11.7-2.1 15.7-3.2 7-9.4 13.1-16.4 16.3-16 7.2-35 .3-42.6-15.3-2.6-5.6-2.7-6.3-3.4-29.7-.6-21-1-25.2-3.2-33.6-3-11.6-7.4-21.3-16.1-35.8-6.3-10.3-7.2-12.1-6.2-12.1.3 0 4.4 1.4 9.3 3.1zm-177.2 98.6c-.8 5.7-2.5 9-6.6 13.8-3.8 4.3-5.3 4.4-6.9.4-1.7-4-1.5-8.3.4-11.1 1.5-2 10.8-7.6 13-7.8.4 0 .5 2.1.1 4.7zm61.7 95.6c.2 14.4.6 17.7 2 20 1.3 1.8 8.8 6.1 25 14.3 21.8 11 23.8 12.2 30.5 19 9.7 9.5 12.3 15.4 16.8 36.9 3.1 14.5 4 17.3 6.5 20.2 1.6 1.8 3.7 4.8 4.7 6.6 2.2 4.2 2.3 14.1.1 18.3-3.6 6.6-14.9 19.3-20.7 23.2-20 13.3-45.1 11.3-62.6-4.9-7.1-6.6-9.3-7.9-13.5-7.9-2.3 0-4.2 1-6.6 3.4-2.8 2.8-3.4 4.1-3.4 7.7 0 4.1.5 4.8 7.3 11.4 26.6 26.1 65.3 28.4 95.1 5.5l6.5-5 7.6 9.4 7.5 9.4 9.3 3.2c21.3 7.3 36.7 19.2 48.6 37.4 5.2 8 10.3 19.9 12.1 28.2.5 2.7 1.2 5.9 1.5 7.1l.5 2.3H183.1l-2.6-8.3c-16.2-51-17.5-101.9-4-151.2 6.9-25.3 18.5-51.2 33.2-74.5 4.4-6.9 9.5-15.4 11.3-19 4.5-8.5 15.5-19.5 23.9-23.9 6.1-3.2 13.1-5.9 15.8-6 .8-.1 1.2 4.8 1.5 17.2z"/>
  <path d="M297 244.1c-11.3 4.5-13.4 19-3.8 26.2 6.6 4.9 13.9 4.3 19.8-1.7 2.8-2.9 3.4-4.5 3.8-9 .4-4.5 0-6.2-1.8-9.2-3.7-5.9-11.9-8.7-18-6.3z"/>
  <path d="M383.8 368.6c-15.6 3.7-27.2 14.6-32 29.8-3.1 9.7-2.1 21.3 2.6 31.2 3.5 7.3 5.5 9.6 37.9 42.2 18.8 18.9 36 35.7 38.1 37.3 2.4 1.8 5.1 2.9 7.1 2.9s4.7-1.1 7.1-2.9c2.1-1.6 19.3-18.4 38.1-37.3 32.4-32.6 34.4-34.9 37.9-42.2 4.7-9.9 5.7-21.5 2.6-31.2-6.8-21.5-28.4-34.5-50-30-9.9 2.1-15.9 5.6-26.6 15.7l-9.1 8.6-9.1-8.6c-10.6-10-16.6-13.6-26.1-15.6-8.2-1.8-11.1-1.8-18.5.1z"/>
  <path d="M289.5 467.4c-6.3 2.7-10.7 11-9 16.8 2.3 7.4 7.9 11.8 15.2 11.8 15.2 0 19.9-21.8 6-28-4.9-2.3-8-2.4-12.2-.6z"/>
</svg>
